<?xml version="1.0" encoding="utf-8"?>
<!-- Generator: Adobe Illustrator 25.4.1, SVG Export Plug-In . SVG Version: 6.00 Build 0)  -->
<svg version="1.1" id="Capa_1" xmlns="http://www.w3.org/2000/svg" xmlns:xlink="http://www.w3.org/1999/xlink" x="0px" y="0px"
	 viewBox="0 0 2668.88 933.09" style="enable-background:new 0 0 2668.88 933.09;" xml:space="preserve">
<style type="text/css">
	.st0{fill:#010202;}
</style>
<g>
	<g>
		<path class="st0" d="M534.81,732.27c-0.92-6.18-2.77-11.65-5.57-16.43c-2.78-4.78-6.78-8.61-11.98-11.49
			c-5.2-2.88-12.03-4.33-20.5-4.34l-38.44-0.05l-0.25,176.95l38.33,0.05c8.54,0.01,15.41-1.41,20.62-4.28
			c5.21-2.86,9.22-6.66,12.01-11.4c2.81-4.73,4.68-10.19,5.62-16.36c0.94-6.17,1.42-12.59,1.43-19.28l0.1-74.2
			C536.19,744.84,535.73,738.45,534.81,732.27z M518.72,825.5c-0.01,6.06-0.41,11.29-1.19,15.67c-0.78,4.39-2.07,8-3.86,10.83
			c-1.79,2.83-4.1,4.93-6.94,6.28c-2.84,1.36-6.28,2.03-10.31,2.03l-20.74-0.03l0.2-143.51l20.74,0.03
			c4.11,0.01,7.59,0.69,10.42,2.05c2.83,1.36,5.12,3.44,6.86,6.24c1.74,2.8,3,6.39,3.77,10.78c0.77,4.39,1.15,9.61,1.14,15.67
			L518.72,825.5z"/>
		<g id="POLYLINE_00000150801069384331409570000004644005720212861325_">
			<polyline class="st0" points="800.2,877.39 800.45,700.44 868.71,700.3 868.69,717.19 817.9,717.24 817.81,778.16 860.56,778.22 
				860.54,795 817.79,794.94 817.7,860.75 868.48,860.82 868.46,877.48 800.2,877.39 			"/>
		</g>
		<g id="SPLINE_00000133500877307154189840000018198411437777639565_">
			<path class="st0" d="M1200.75,834.5c-0.01,7.15-0.76,13.53-2.24,19.16c-1.48,5.63-3.82,10.38-7.01,14.26
				c-3.19,3.88-7.29,6.85-12.3,8.89c-5.01,2.05-11.05,3.07-18.12,3.06c-8.54-0.01-15.42-1.15-20.61-3.41
				c-5.2-2.26-9.24-5.43-12.1-9.51c-2.87-4.08-4.76-8.96-5.69-14.63c-0.92-5.67-1.38-11.92-1.37-18.76l0.01-8.5l17.47,0.02
				l-0.01,7.8c-0.01,5.13,0.26,9.57,0.8,13.34c0.54,3.77,1.62,6.92,3.25,9.44c1.63,2.53,3.88,4.39,6.75,5.6
				c2.87,1.21,6.64,1.81,11.3,1.82c4.19,0.01,7.71-0.71,10.55-2.14c2.84-1.43,5.11-3.41,6.82-5.93c1.71-2.52,2.94-5.53,3.68-9.02
				c0.74-3.49,1.12-7.3,1.12-11.41l0-1.16c0.01-4.11-0.34-7.81-1.03-11.07c-0.69-3.26-1.76-6.19-3.19-8.8
				c-1.43-2.6-3.28-4.96-5.52-7.06c-2.25-2.1-4.93-4.08-8.03-5.95l-16.88-10.27c-4.89-2.96-8.98-5.95-12.28-8.99
				c-3.3-3.03-5.93-6.37-7.91-10.03c-1.98-3.65-3.39-7.71-4.23-12.18c-0.85-4.47-1.27-9.65-1.26-15.55l0-2.45
				c0.02-13.82,3.33-24.34,9.95-31.55c6.61-7.21,16.32-10.81,29.14-10.79c6.83,0.01,12.68,1.03,17.53,3.05
				c4.85,2.03,8.85,4.91,11.99,8.64c3.14,3.73,5.44,8.26,6.91,13.58c1.47,5.32,2.2,11.29,2.19,17.88l-0.02,11.53l-17.47-0.02
				l-0.21-14.44c-0.07-3.26-0.52-6.31-1.33-9.15c-0.81-2.83-2.05-5.32-3.72-7.46c-1.67-2.14-3.82-3.81-6.46-5.02
				c-2.64-1.21-5.82-1.81-9.55-1.82c-4.04-0.01-7.44,0.71-10.2,2.14c-2.76,1.43-5,3.41-6.71,5.93c-1.71,2.52-2.92,5.45-3.62,8.79
				c-0.7,3.34-0.98,6.87-0.83,10.6l0.11,4.08c0.15,6.06,1.85,11.46,5.1,16.2c3.26,4.74,7.56,8.67,12.91,11.78l16.3,9.46
				c4.66,2.73,8.59,5.7,11.81,8.93c3.22,3.23,5.85,6.75,7.91,10.55c2.05,3.81,3.58,7.97,4.58,12.47c1,4.51,1.58,9.4,1.73,14.68
				L1200.75,834.5z"/>
		</g>
		<g id="POLYLINE_00000165931588361993890960000000493382568096495236_">
			<polyline class="st0" points="1462.79,878.32 1463.04,701.14 1480.62,701.16 1480.38,878.34 1462.79,878.32 			"/>
		</g>
		<g id="SPLINE_00000032634700209538728580000014368549432280482190_">
			<path class="st0" d="M1784.07,788.38l41,0.06l-0.06,43.1c-0.01,3.81-0.19,7.67-0.54,11.59c-0.35,3.92-1.06,7.71-2.11,11.35
				c-1.05,3.65-2.5,7.08-4.32,10.3c-1.83,3.22-4.22,6.01-7.18,8.38c-2.96,2.37-6.55,4.23-10.78,5.58
				c-4.24,1.35-9.23,2.03-14.97,2.02c-5.9-0.01-10.99-0.71-15.26-2.12c-4.27-1.4-7.86-3.33-10.77-5.78s-5.28-5.35-7.09-8.69
				c-1.82-3.34-3.21-6.95-4.18-10.84c-0.97-3.88-1.6-7.92-1.91-12.12c-0.31-4.19-0.45-8.43-0.45-12.7l0.11-76.65
				c0.01-4.35,0.19-8.66,0.54-12.93c0.36-4.27,1.04-8.34,2.06-12.23c1.01-3.88,2.42-7.47,4.21-10.77c1.79-3.3,4.16-6.17,7.12-8.61
				c2.95-2.44,6.55-4.34,10.78-5.69c4.23-1.35,9.26-2.03,15.09-2.02c5.9,0.01,10.99,0.71,15.26,2.12c4.27,1.4,7.88,3.31,10.83,5.72
				c2.95,2.41,5.31,5.23,7.09,8.46c1.78,3.23,3.17,6.66,4.18,10.32c1,3.65,1.66,7.42,1.96,11.3c0.3,3.89,0.46,7.69,0.45,11.42
				l-0.01,5.36l-17.59-0.02l0.01-5.36c0.01-4.27-0.22-8.39-0.68-12.35c-0.46-3.96-1.47-7.42-3.01-10.37
				c-1.55-2.95-3.78-5.32-6.69-7.12c-2.91-1.79-6.85-2.69-11.82-2.7c-4.97-0.01-8.91,0.92-11.83,2.78s-5.13,4.4-6.65,7.62
				c-1.52,3.22-2.51,6.99-2.99,11.3c-0.47,4.31-0.71,8.95-0.72,13.92l-0.11,76.42c-0.01,4.66,0.18,9.14,0.56,13.46
				c0.38,4.31,1.31,8.1,2.78,11.36c1.47,3.26,3.68,5.87,6.63,7.81c2.95,1.95,6.99,2.92,12.11,2.93c4.74,0.01,8.56-0.84,11.48-2.55
				c2.91-1.7,5.17-4.01,6.77-6.92c1.59-2.91,2.67-6.34,3.22-10.3c0.55-3.96,0.83-8.23,0.83-12.81l0.04-26.33l-23.41-0.03
				L1784.07,788.38z"/>
		</g>
		<g id="POLYLINE_00000122000957569761664670000002753244672682308491_">
			<polyline class="st0" points="2089.26,879.2 2089.51,702.02 2114.91,702.06 2155.59,849.24 2155.21,702.11 2172.8,702.14 
				2173.13,879.32 2148.67,879.29 2106.36,731.28 2106.85,879.23 2089.26,879.2 			"/>
		</g>
		<path class="st0" d="M695.26,312.94c-0.13-2.29-0.31-4.58-0.43-6.8c-0.62-8.08-1.57-16.02-2.83-23.85
			c-0.06-0.06-0.06-0.13-0.06-0.19c-2.21-13.23-5.43-26.01-9.48-38.48c0.06,0,0.06-0.06,0.06-0.06
			c25.97-19.42,41.72-50.23,41.76-83.11c0.08-57.35-46.53-104.09-103.88-104.17c-28.1-0.04-54.44,10.99-73.93,30.67
			c-0.06,0.06-0.06,0.06-0.12,0.13c-36.03-17.67-76.07-27-116.58-27.06c-40.75-0.06-81.15,9.29-117.41,27.17l-0.58-0.57
			c-19.36-19.67-45.67-30.84-73.84-30.88c-57.35-0.08-104.09,46.52-104.17,103.88c-0.05,33,15.61,63.8,41.59,83.29
			c0.32,0.26,0.64,0.51,0.95,0.7c-8.68,26.44-13.11,54.09-13.15,82.26c-0.21,146.81,119.1,266.45,265.85,266.66
			c67.28,0.09,128.86-24.93,175.84-66.13c4.83-4.32,9.55-8.76,14.13-13.4c6.94-6.98,13.43-14.41,19.55-22.16
			c1.34-1.65,2.61-3.37,3.88-5.08c2.49-3.3,4.91-6.67,7.26-10.1c8.48-12.51,15.94-25.73,22.18-39.58c0.9-1.97,1.79-3.94,2.62-5.97
			c0.38-0.83,0.7-1.65,1.08-2.54c1.15-2.8,2.3-5.66,3.32-8.58c1.72-4.38,3.19-8.77,4.6-13.28c1.28-4.13,2.49-8.33,3.58-12.46
			c0-0.06,0.06-0.13,0.06-0.19c1.02-4.19,2.04-8.45,2.94-12.71c1.79-8.71,3.14-17.48,4.11-26.51c0.45-4.45,0.78-8.96,1.03-13.48
			c0.13-2.29,0.2-4.58,0.27-6.87c0-1.14,0-2.29,0.07-3.43l0.01-6.86c-0.06-1.14-0.06-2.29-0.06-3.43
			C695.44,317.45,695.38,315.16,695.26,312.94z M187.75,214.5c-0.25-0.25-0.57-0.51-0.82-0.77c-14.67-13.94-23.35-33.41-23.32-54.08
			c0.06-40.88,33.42-74.15,74.3-74.1c17.29,0.02,33.5,5.9,46.52,16.47c0.19,0.19,0.45,0.32,0.64,0.51
			c-0.44,0.32-0.89,0.57-1.33,0.89c-1.92,1.21-3.76,2.47-5.54,3.74c-0.89,0.57-1.72,1.14-2.55,1.78c-1.97,1.33-3.88,2.73-5.79,4.19
			c-5.28,3.94-10.38,8.06-15.28,12.38c-1.46,1.21-2.93,2.48-4.33,3.87c-1.34,1.14-2.61,2.35-3.89,3.62
			c-1.02,0.82-2.03,1.84-2.99,2.79c-2.42,2.35-4.71,4.7-7,7.11l-0.06,0.06c-2.68,2.79-5.28,5.72-7.9,8.64l0,0.06
			c-2.42,2.73-4.71,5.52-7,8.38c-0.51,0.64-1.02,1.33-1.53,1.97c-1.65,2.03-3.25,4.13-4.71,6.23c-1.15,1.46-2.23,2.92-3.25,4.44
			c-3.89,5.46-7.52,11.06-10.96,16.84c-1.28,2.16-2.55,4.32-3.7,6.48c-0.44,0.7-0.83,1.34-1.15,2.04c-1.4,2.54-2.74,5.08-4.01,7.62
			c-0.13,0.19-0.19,0.32-0.26,0.44C190.43,208.9,189.03,211.7,187.75,214.5z M663.92,355.94c-1.16,9.6-2.95,19.07-5.32,28.28
			c-1.54,6.1-3.33,12.14-5.37,18.12c0,0,0,0.06-0.06,0.13c-1.72,5.15-3.64,10.23-5.81,15.19c-2.3,5.66-4.91,11.19-7.72,16.65
			c-1.72,3.31-3.51,6.61-5.35,9.85c-6.75,11.62-14.4,22.68-22.93,32.96c-2.36,2.86-4.78,5.65-7.26,8.32
			c-0.06,0.06-0.13,0.13-0.19,0.25c-2.48,2.73-5.03,5.33-7.64,7.94c-42.92,43.05-102.34,69.67-167.83,69.58
			c-130.66-0.18-236.76-106.64-236.58-237.31c0.03-23.34,3.44-45.84,9.82-67.13c19.61-66.1,67.38-120.2,129.34-148.29
			c29.9-13.63,63.1-21.21,98.08-21.16c38.15,0.05,74.19,9.2,106.14,25.33c1.34,0.64,2.74,1.4,4,2.1c4.51,2.29,8.9,4.85,13.22,7.58
			c1.78,0.96,3.56,2.11,5.28,3.25c1.77,1.21,3.56,2.36,5.27,3.57c2.16,1.53,4.32,2.99,6.41,4.59c2.61,1.85,5.14,3.82,7.62,5.8
			c0.89,0.76,1.78,1.46,2.61,2.17c1.91,1.53,3.74,3.12,5.59,4.71c3.18,2.8,6.23,5.6,9.21,8.6c2.03,1.97,4.06,4.01,6.03,6.05
			c4.19,4.33,8.12,8.79,11.81,13.44c1.08,1.21,2.09,2.55,3.05,3.82c1.33,1.46,2.47,2.99,3.55,4.58c2.28,2.99,4.5,6.11,6.54,9.23
			c5.39,7.89,10.27,16.1,14.52,24.63c3.55,6.81,6.72,13.81,9.45,21c0.5,1.02,0.88,2.03,1.26,3.05l1.46,3.88
			c0.44,1.34,0.88,2.67,1.27,3.94c0.7,1.85,1.33,3.69,1.77,5.53c3.61,11.2,6.26,22.71,7.9,34.35c0.38,1.97,0.63,3.94,0.82,5.92
			c0.31,1.97,0.57,3.94,0.69,5.91c0.25,1.97,0.44,4,0.5,6.04c0.37,3.69,0.56,7.44,0.56,11.19c0.13,0.7,0.13,1.46,0.06,2.16
			c0.06,0.76,0.06,1.59,0.06,2.42c0.06,0.83,0.06,1.65,0.06,2.42C665.79,336.49,665.14,346.28,663.92,355.94z M671.04,214.35
			c-0.06-0.13-0.13-0.19-0.19-0.32c0.25,0.57,0.5,1.14,0.76,1.72c-1.14-2.55-2.35-5.03-3.55-7.51l-0.06-0.06
			c-3.36-6.81-7.04-13.43-10.97-19.92c-0.06-0.06-0.06-0.13-0.13-0.19c-0.26-0.45-0.57-0.89-0.83-1.27
			c-0.19-0.32-0.38-0.57-0.57-0.89c-1.46-2.35-2.92-4.77-4.5-7.13c-1.52-2.35-3.11-4.64-4.69-6.94c-0.06-0.06-0.06-0.06-0.06-0.06
			c0-0.06-0.06-0.13-0.13-0.13c-1.65-2.35-3.36-4.65-5.07-6.87c-0.13-0.25-0.32-0.45-0.51-0.7c-1.58-2.04-3.17-4.01-4.76-5.98
			c-0.25-0.39-0.57-0.77-0.95-1.15c-1.27-1.66-2.67-3.31-4.13-4.9c-1.4-1.59-2.86-3.18-4.25-4.77c-0.38-0.57-0.89-1.08-1.46-1.59
			c-0.31-0.45-0.76-0.89-1.2-1.34c-0.51-0.64-1.08-1.21-1.71-1.78c-0.51-0.57-1.08-1.21-1.65-1.78c-0.51-0.51-1.01-1.02-1.52-1.53
			c-0.38-0.44-0.83-0.89-1.27-1.27c-0.64-0.7-1.27-1.34-2.03-2.04c-0.82-0.83-1.65-1.65-2.54-2.42c-0.96-0.89-1.84-1.78-2.8-2.61
			c-0.25-0.32-0.51-0.51-0.76-0.76c-0.38-0.38-0.76-0.7-1.15-1.02c-1.21-1.15-2.47-2.29-3.74-3.37c-0.31-0.32-0.7-0.64-1.02-0.89
			c-0.57-0.51-1.14-0.96-1.71-1.4c-1.4-1.27-2.86-2.48-4.32-3.63c-0.83-0.7-1.59-1.34-2.41-1.98c-2.16-1.72-4.32-3.37-6.54-5.03
			c-0.57-0.45-1.08-0.83-1.66-1.21c-1.46-1.08-2.98-2.17-4.44-3.19c-1.46-1.08-2.99-2.1-4.51-3.06c-0.51-0.38-1.02-0.76-1.59-1.08
			c-0.89-0.64-1.78-1.21-2.67-1.78l0.06-0.06c13.05-10.53,29.28-16.36,46.57-16.34c40.89,0.06,74.16,33.42,74.1,74.31
			C694.43,181,685.75,200.51,671.04,214.35z"/>
		<g id="SPLINE_00000103266597195405945400000006270374708134084768_">
			<path class="st0" d="M994.03,596.26c-145.76-0.21-264.17-118.95-263.97-264.71c0.21-145.76,118.95-264.17,264.71-263.97
				c70.61,0.1,136.95,27.69,186.81,77.69c5.82,5.83,5.8,15.27-0.03,21.09s-15.27,5.8-21.09-0.03
				c-44.23-44.36-103.1-68.83-165.73-68.92c-129.31-0.18-234.66,104.87-234.85,234.19c-0.18,129.31,104.87,234.66,234.18,234.85
				c124.3,0.18,226.46-96.9,234.36-219.27l-234.05-0.33c-8.23-0.01-14.9-6.7-14.89-14.93s6.7-14.9,14.93-14.89l249.43,0.35
				c8.23,0.01,14.9,6.7,14.89,14.93C1258.54,478.05,1139.79,596.46,994.03,596.26z"/>
		</g>
		<g id="SPLINE_00000094605580258116314970000000072515900853527735_">
			<path class="st0" d="M1618.37,589.83c-145.76-0.21-264.17-118.95-263.97-264.71c0.21-145.76,118.96-264.17,264.71-263.97
				c70.61,0.1,136.95,27.69,186.81,77.69c5.82,5.83,5.8,15.27-0.03,21.09c-5.83,5.82-15.27,5.8-21.09-0.03
				c-44.23-44.36-103.09-68.84-165.73-68.92c-129.31-0.18-234.67,104.87-234.85,234.19c-0.18,129.31,104.87,234.66,234.19,234.85
				c124.3,0.18,226.46-96.9,234.36-219.27l-234.05-0.33c-8.23-0.01-14.9-6.7-14.89-14.93s6.7-14.9,14.93-14.89l249.43,0.35
				c8.23,0.01,14.9,6.7,14.89,14.93C1882.87,471.62,1764.12,590.04,1618.37,589.83z"/>
		</g>
		<g>
			<g id="SPLINE_00000158014577555857782050000007732887523293183400_">
				<path class="st0" d="M426.98,331.12c28.05,0.04,50.75,21.6,50.71,48.16c-0.01,7.37-28.26,17.1-31.39,23.34
					c-8.17,16.24,0.81,24.71-19.46,24.68"/>
			</g>
			<g id="SPLINE_00000142870783708119227320000017144989375990079885_">
				<path class="st0" d="M431.45,331.13c-27.54-0.04-49.9,21.46-49.93,48.02c-0.01,7.37,27.7,17.18,30.76,23.42
					c7.98,16.27-0.86,24.7,19.04,24.73"/>
			</g>
		</g>
		<g>
			<g id="SPLINE_00000068638384055373416190000016319819370652934793_">
				<path class="st0" d="M2212.16,333.64c28.05,0.04,50.75,21.6,50.71,48.16c-0.01,7.37-28.26,17.1-31.39,23.34
					c-8.17,16.24,0.81,24.71-19.46,24.68"/>
			</g>
			<g id="SPLINE_00000173151275223577629980000006862502980356677811_">
				<path class="st0" d="M2216.64,333.64c-27.54-0.04-49.9,21.46-49.93,48.02c-0.01,7.37,27.7,17.18,30.76,23.42
					c7.98,16.27-0.86,24.7,19.04,24.73"/>
			</g>
		</g>
		<g>
			<path class="st0" d="M2483.64,322.26c-0.06-2.29-0.12-4.58-0.24-6.81c-0.12-2.29-0.31-4.58-0.44-6.8
				c-0.62-8.08-1.57-16.02-2.83-23.85c-0.06-0.06-0.06-0.13-0.06-0.19c-2.14-13.1-5.3-25.95-9.42-38.55
				c25.97-19.42,41.72-50.23,41.76-83.11c0.08-57.35-46.52-104.09-103.87-104.17c-28.1-0.04-54.44,10.99-73.93,30.67
				c-35.39-17.54-75.25-27.38-117.34-27.44c-42.1-0.06-81.91,9.67-117.35,27.11c-19.37-19.67-45.68-30.84-73.84-30.88
				c-57.35-0.08-104.09,46.52-104.17,103.88c-0.05,33,15.62,63.8,41.59,83.29c-8.62,26.12-13.3,54.03-13.34,82.96
				c-0.21,147.13,119.29,266.96,266.36,267.17c67.59,0.1,129.49-25.12,176.47-66.64c4.84-4.32,9.55-8.76,14.13-13.4
				c6.94-6.98,13.43-14.41,19.55-22.16c1.34-1.65,2.61-3.37,3.89-5.08c2.49-3.3,4.91-6.67,7.26-10.1
				c8.48-12.51,15.93-25.73,22.18-39.58c0.9-1.97,1.79-3.94,2.62-5.97c0.39-0.83,0.7-1.65,1.08-2.54c1.15-2.8,2.3-5.66,3.32-8.58
				c1.72-4.38,3.19-8.77,4.59-13.28c1.28-4.13,2.49-8.33,3.58-12.46c0-0.06,0.06-0.13,0.06-0.19c1.02-4.19,2.05-8.45,2.94-12.71
				c1.79-8.71,3.14-17.48,4.11-26.51c0.45-4.45,0.78-8.96,1.04-13.48c0.13-2.29,0.19-4.58,0.26-6.87c0-1.14,0-2.29,0.07-3.43
				c0.07-1.14,0.07-2.29,0.07-3.43s0-2.29-0.06-3.43C2483.64,324.55,2483.64,323.41,2483.64,322.26z M1951.74,162.17
				c0.06-40.88,33.42-74.15,74.31-74.1c17.29,0.02,33.5,5.9,46.52,16.47c-42.13,27.22-76.08,65.89-97.5,111.7
				C1960.4,202.31,1951.71,182.83,1951.74,162.17z M2446.74,386.74c-1.53,6.1-3.33,12.14-5.37,18.12c0,0,0,0.06-0.06,0.13
				c-1.72,5.15-3.64,10.23-5.81,15.19c-2.3,5.66-4.91,11.19-7.72,16.65c-1.72,3.31-3.51,6.61-5.35,9.85
				c-6.76,11.62-14.4,22.68-22.94,32.96c-2.36,2.86-4.78,5.65-7.26,8.32c-0.06,0.06-0.13,0.13-0.19,0.25
				c-2.48,2.73-5.03,5.33-7.64,7.94c-42.85,42.73-102.02,69.16-167.19,69.07c-130.35-0.18-236.26-106.39-236.07-236.8
				c0.04-28.61,5.17-56.58,15.19-83.14c19.91-52.75,58.13-96.76,107.7-123.9c34.68-19.03,74.05-29.08,113.85-29.02
				c39.36,0.06,78.25,9.96,112.62,28.71c0.32,0.13,0.58,0.25,0.89,0.44c3.11,1.72,6.16,3.51,9.21,5.35
				c1.78,0.96,3.56,2.11,5.27,3.25c1.78,1.21,3.56,2.36,5.27,3.57c2.16,1.53,4.32,2.99,6.41,4.59c2.61,1.85,5.14,3.82,7.62,5.8
				c0.89,0.76,1.78,1.46,2.61,2.17c1.91,1.53,3.75,3.12,5.59,4.71c3.18,2.8,6.23,5.6,9.21,8.6c2.03,1.97,4.06,4.01,6.03,6.05
				c4.19,4.33,8.12,8.79,11.81,13.44c1.08,1.21,2.1,2.55,3.05,3.82c1.33,1.46,2.48,2.99,3.55,4.58c2.28,2.99,4.5,6.11,6.54,9.23
				c5.27,7.89,10.15,16.1,14.52,24.63c3.49,6.81,6.6,13.81,9.45,21c1.39,3.56,2.72,7.19,3.99,10.88c0.7,1.85,1.33,3.69,1.77,5.53
				c3.48,11.13,6.14,22.58,7.9,34.35c0.38,1.97,0.63,3.94,0.81,5.92c0.32,1.97,0.57,3.94,0.69,5.91c0.25,1.97,0.44,4,0.5,6.04
				c0.38,3.69,0.56,7.44,0.56,11.19c0.13,0.7,0.13,1.46,0.06,2.16c0.06,0.76,0.06,1.59,0.06,2.42l0,2.42
				c-0.01,9.92-0.66,19.71-1.82,29.37C2450.9,368.06,2449.11,377.53,2446.74,386.74z M2459.18,216.87
				c-0.06-0.13-0.13-0.19-0.19-0.32c-0.26-0.57-0.51-1.14-0.76-1.65c-0.63-1.4-1.27-2.8-2.03-4.14l-0.06-0.06
				c-0.89-2.04-1.97-4.01-3.04-6.05c-0.51-1.02-1.02-2.04-1.59-2.99c-1.46-2.67-2.92-5.28-4.44-7.89c-0.57-1.02-1.33-1.97-1.9-2.99
				c-0.06-0.06-0.06-0.13-0.13-0.19c-0.25-0.45-0.57-0.89-0.82-1.27c-0.19-0.32-0.38-0.57-0.58-0.89c-1.46-2.35-2.91-4.77-4.5-7.13
				c-0.31-0.57-0.63-1.14-1.01-1.65c-1.21-1.78-2.41-3.56-3.68-5.28c-0.06-0.06-0.06-0.06-0.06-0.06c0-0.06-0.06-0.13-0.13-0.13
				c-0.89-1.34-1.9-2.74-2.92-4.07c-0.64-0.89-1.33-1.85-2.16-2.8c-0.13-0.25-0.31-0.45-0.51-0.7c-1.27-1.78-2.67-3.5-4.07-5.22
				c-0.19-0.25-0.44-0.51-0.69-0.76c-0.26-0.39-0.57-0.77-0.96-1.15c-1.26-1.66-2.66-3.31-4.13-4.9c-1.4-1.59-2.86-3.18-4.25-4.77
				c-0.38-0.57-0.89-1.08-1.46-1.59c-0.32-0.45-0.76-0.89-1.21-1.34c-1.01-1.21-2.16-2.36-3.36-3.57c-0.51-0.51-1.02-1.02-1.53-1.53
				c-0.38-0.44-0.82-0.89-1.27-1.27c-0.64-0.7-1.27-1.34-2.03-2.04c-0.83-0.83-1.65-1.65-2.54-2.42c-0.06-0.19-0.19-0.25-0.32-0.38
				c-0.82-0.76-1.65-1.53-2.47-2.23c-0.26-0.32-0.51-0.51-0.76-0.76c-0.38-0.38-0.76-0.7-1.14-1.02c-1.21-1.15-2.48-2.29-3.75-3.37
				c-0.31-0.32-0.7-0.64-1.01-0.89c-0.57-0.51-1.14-0.96-1.71-1.4c-1.4-1.27-2.86-2.48-4.32-3.63c-0.83-0.7-1.59-1.34-2.41-1.98
				c-2.16-1.72-4.32-3.37-6.54-5.03c-0.57-0.45-1.08-0.83-1.65-1.21c-1.46-1.08-2.99-2.17-4.45-3.19c-0.25-0.19-0.51-0.38-0.76-0.57
				c-0.12-0.06-0.25-0.13-0.32-0.26c-2.54-1.78-5.01-3.5-7.62-5.16c13.05-10.53,29.27-16.36,46.57-16.34
				c40.88,0.06,74.15,33.42,74.09,74.31C2482.57,183.52,2473.9,203.03,2459.18,216.87z"/>
			<path class="st0" d="M2214.72,429.81c0.9,0,1.46-0.1,2.26-0.14c-0.79-0.03-1.57-0.08-2.26-0.15L2214.72,429.81z"/>
			<path class="st0" d="M2214.86,333.64l0,0.43c0.75-0.06,1.49-0.18,2.26-0.22C2216.35,333.82,2215.63,333.64,2214.86,333.64z"/>
			<path class="st0" d="M2219.2,429.82l0-0.28c-0.68,0.07-1.44,0.1-2.22,0.14C2217.75,429.71,2218.3,429.82,2219.2,429.82z"/>
			<path class="st0" d="M2219.33,333.65c-0.76,0-1.47,0.18-2.22,0.21c0.75,0.03,1.47,0.15,2.22,0.22L2219.33,333.65z"/>
		</g>
	</g>
</g>
</svg>
