<?xml version="1.0" encoding="utf-8"?>
<!-- Generator: Adobe Illustrator 25.4.1, SVG Export Plug-In . SVG Version: 6.00 Build 0)  -->
<svg version="1.1" id="Capa_1" xmlns="http://www.w3.org/2000/svg" xmlns:xlink="http://www.w3.org/1999/xlink" x="0px" y="0px"
	 viewBox="0 0 1172.32 933.09" style="enable-background:new 0 0 1172.32 933.09;" xml:space="preserve">
<style type="text/css">
	.st0{fill:#010202;}
</style>
<g>
	<path class="st0" d="M1034.96,456.52c-0.21-3.82-0.52-7.64-0.73-11.36c-1.04-13.49-2.61-26.77-4.72-39.84
		c-0.11-0.11-0.11-0.21-0.11-0.32c-3.68-22.1-9.07-43.45-15.84-64.28c0.11,0,0.11-0.1,0.11-0.1
		c43.37-32.44,69.68-83.91,69.76-138.82c0.14-95.8-77.72-173.87-173.52-174c-46.94-0.07-90.93,18.35-123.49,51.23
		c-0.11,0.11-0.11,0.11-0.21,0.21c-60.18-29.51-127.08-45.11-194.73-45.2c-68.07-0.1-135.55,15.53-196.12,45.39l-0.96-0.96
		c-32.34-32.86-76.29-51.51-123.34-51.58c-95.8-0.13-173.86,77.71-174,173.51c-0.08,55.13,26.08,106.56,69.48,139.12
		c0.53,0.43,1.06,0.85,1.59,1.17c-14.5,44.17-21.9,90.36-21.97,137.4c-0.35,245.24,198.94,445.08,444.07,445.43
		c112.38,0.16,215.24-41.65,293.73-110.46c8.07-7.21,15.95-14.64,23.61-22.38c11.59-11.66,22.44-24.08,32.66-37.02
		c2.24-2.76,4.37-5.62,6.49-8.49c4.15-5.52,8.2-11.14,12.13-16.87c14.16-20.9,26.62-42.98,37.06-66.12c1.5-3.28,2.98-6.58,4.37-9.97
		c0.64-1.38,1.17-2.76,1.81-4.24c1.92-4.67,3.84-9.45,5.55-14.33c2.87-7.32,5.33-14.65,7.68-22.19c2.14-6.9,4.16-13.91,5.98-20.81
		c0-0.1,0.11-0.21,0.11-0.32c1.71-7,3.41-14.12,4.91-21.23c2.99-14.55,5.25-29.2,6.86-44.28c0.75-7.43,1.3-14.97,1.73-22.51
		c0.22-3.82,0.33-7.64,0.44-11.47c0-1.91,0.01-3.82,0.12-5.74l0.02-11.47c-0.1-1.91-0.1-3.82-0.1-5.73
		C1035.27,464.06,1035.17,460.24,1034.96,456.52z M187.22,292.08c-0.42-0.42-0.95-0.85-1.37-1.28
		c-24.51-23.29-39.01-55.81-38.96-90.33c0.1-68.29,55.83-123.87,124.12-123.77c28.89,0.04,55.96,9.85,77.71,27.51
		c0.32,0.32,0.75,0.53,1.06,0.85c-0.74,0.53-1.48,0.95-2.23,1.49c-3.2,2.01-6.27,4.13-9.25,6.25c-1.49,0.96-2.87,1.91-4.25,2.97
		c-3.3,2.22-6.48,4.56-9.67,6.99c-8.82,6.58-17.33,13.47-25.52,20.68c-2.44,2.01-4.89,4.14-7.22,6.47
		c-2.24,1.91-4.36,3.92-6.49,6.05c-1.7,1.38-3.4,3.08-5,4.66c-4.04,3.92-7.87,7.85-11.7,11.88l-0.11,0.11
		c-4.47,4.67-8.83,9.55-13.19,14.43l0,0.1c-4.04,4.56-7.87,9.23-11.7,14c-0.85,1.06-1.7,2.23-2.56,3.29
		c-2.76,3.4-5.42,6.9-7.87,10.4c-1.91,2.44-3.72,4.88-5.42,7.42c-6.5,9.13-12.56,18.47-18.31,28.12c-2.13,3.6-4.26,7.22-6.18,10.82
		c-0.74,1.17-1.38,2.23-1.92,3.4c-2.35,4.24-4.58,8.49-6.71,12.73c-0.21,0.32-0.32,0.53-0.43,0.74
		C191.7,282.74,189.36,287.42,187.22,292.08z M982.61,528.35c-1.93,16.04-4.93,31.86-8.88,47.25c-2.57,10.19-5.56,20.28-8.97,30.26
		c0,0,0,0.11-0.1,0.21c-2.88,8.6-6.08,17.09-9.71,25.37c-3.84,9.45-8.2,18.68-12.89,27.81c-2.87,5.52-5.86,11.04-8.94,16.45
		c-11.28,19.42-24.06,37.88-38.31,55.06c-3.94,4.78-7.98,9.45-12.13,13.9c-0.11,0.1-0.21,0.21-0.32,0.42
		c-4.15,4.56-8.4,8.91-12.76,13.26c-71.69,71.91-170.94,116.38-280.34,116.22C371,874.26,193.77,696.43,194.08,478.17
		c0.05-38.98,5.74-76.57,16.41-112.13c32.76-110.41,112.54-200.79,216.06-247.69C476.5,95.58,531.95,82.92,590.38,83
		c63.73,0.09,123.92,15.36,177.3,42.31c2.23,1.06,4.57,2.34,6.68,3.51c7.54,3.83,14.87,8.09,22.08,12.67
		c2.97,1.6,5.94,3.52,8.82,5.43c2.96,2.02,5.94,3.94,8.81,5.96c3.6,2.55,7.22,5,10.71,7.66c4.35,3.09,8.59,6.39,12.73,9.68
		c1.49,1.27,2.97,2.45,4.35,3.62c3.18,2.55,6.25,5.21,9.33,7.87c5.31,4.68,10.4,9.36,15.38,14.36c3.39,3.3,6.79,6.7,10.08,10.1
		c7,7.23,13.57,14.68,19.72,22.44c1.8,2.02,3.49,4.25,5.09,6.38c2.22,2.45,4.13,5,5.94,7.66c3.82,5,7.52,10.2,10.92,15.41
		c9.01,13.18,17.16,26.89,24.26,41.14c5.93,11.37,11.23,23.06,15.78,35.07c0.84,1.7,1.48,3.4,2.11,5.1l2.44,6.48
		c0.74,2.23,1.48,4.47,2.12,6.59c1.17,3.08,2.21,6.16,2.96,9.24c6.03,18.7,10.46,37.93,13.19,57.37c0.64,3.29,1.05,6.59,1.37,9.88
		c0.52,3.29,0.95,6.58,1.16,9.88c0.42,3.29,0.73,6.69,0.83,10.09c0.63,6.16,0.94,12.43,0.93,18.7c0.21,1.17,0.21,2.44,0.1,3.61
		c0.11,1.28,0.1,2.66,0.1,4.04c0.11,1.38,0.1,2.76,0.1,4.04C985.74,495.86,984.65,512.21,982.61,528.35z M994.52,291.84
		c-0.11-0.21-0.21-0.32-0.31-0.53c0.42,0.96,0.84,1.91,1.26,2.87c-1.91-4.25-3.92-8.4-5.93-12.54l-0.11-0.11
		c-5.61-11.38-11.76-22.43-18.32-33.27c-0.11-0.11-0.11-0.21-0.21-0.32c-0.43-0.75-0.95-1.49-1.38-2.13
		c-0.31-0.53-0.63-0.96-0.95-1.49c-2.43-3.93-4.87-7.97-7.52-11.91c-2.54-3.93-5.2-7.76-7.84-11.58c-0.11-0.11-0.11-0.11-0.11-0.11
		c0-0.11-0.11-0.21-0.21-0.21c-2.75-3.93-5.62-7.76-8.48-11.48c-0.21-0.42-0.53-0.75-0.86-1.17c-2.65-3.41-5.3-6.7-7.95-10
		c-0.42-0.64-0.94-1.28-1.59-1.91c-2.12-2.77-4.46-5.53-6.89-8.19c-2.34-2.66-4.77-5.32-7.11-7.98c-0.63-0.96-1.48-1.81-2.44-2.66
		c-0.53-0.75-1.27-1.49-2.01-2.23c-0.85-1.06-1.81-2.02-2.86-2.98c-0.86-0.96-1.81-2.02-2.76-2.98c-0.85-0.85-1.69-1.7-2.54-2.56
		c-0.63-0.74-1.38-1.48-2.12-2.12c-1.06-1.17-2.12-2.23-3.4-3.4c-1.37-1.39-2.76-2.76-4.24-4.04c-1.6-1.49-3.08-2.98-4.67-4.36
		c-0.42-0.53-0.85-0.85-1.27-1.27c-0.64-0.64-1.28-1.17-1.92-1.7c-2.02-1.91-4.13-3.83-6.25-5.63c-0.53-0.53-1.17-1.06-1.7-1.49
		c-0.95-0.85-1.91-1.6-2.85-2.34c-2.34-2.13-4.78-4.15-7.22-6.06c-1.38-1.17-2.66-2.24-4.03-3.3c-3.61-2.87-7.22-5.64-10.93-8.41
		c-0.95-0.75-1.8-1.38-2.77-2.02c-2.44-1.81-4.98-3.62-7.42-5.32c-2.44-1.81-4.99-3.51-7.53-5.11c-0.86-0.64-1.7-1.27-2.66-1.81
		c-1.48-1.06-2.97-2.02-4.45-2.98l0.1-0.11c21.81-17.6,48.9-27.33,77.78-27.29c68.3,0.1,123.87,55.83,123.78,124.12
		C1033.58,236.14,1019.08,268.72,994.52,291.84z"/>
	<g>
		<g id="SPLINE_4_">
			<path class="st0" d="M586.83,486.9c46.85,0.07,84.77,36.08,84.71,80.44c-0.02,12.31-47.2,28.56-52.44,38.98
				c-13.65,27.13,1.35,41.27-32.5,41.22"/>
		</g>
		<g id="SPLINE_3_">
			<path class="st0" d="M594.3,486.91c-46-0.06-83.34,35.84-83.41,80.21c-0.02,12.31,46.27,28.69,51.38,39.13
				c13.32,27.17-1.44,41.27,31.8,41.31"/>
		</g>
	</g>
</g>
</svg>
